<svg width="383" height="80" viewBox="0 0 383 80" fill="none" xmlns="http://www.w3.org/2000/svg">
<path d="M37.7319 55.0312H18.935L15.2787 69H0.700623L22.0287 0.75H34.6381L56.1069 69H41.3881L37.7319 55.0312ZM21.935 43.5469H34.685L28.31 19.2188L21.935 43.5469ZM101.607 69H87.8262L67.67 24.2344V69H53.8887V0.75H67.67L87.8731 45.5625V0.75H101.607V69ZM137.452 55.0312H118.655L114.999 69H100.421L121.749 0.75H134.358L155.827 69H141.108L137.452 55.0312ZM121.655 43.5469H134.405L128.03 19.2188L121.655 43.5469ZM185.437 79.6875H149.109V69H185.437V79.6875ZM218.656 39.4688H197.188V57.5625H222.594V69H183.406V0.75H222.5V12.2344H197.188V28.3594H218.656V39.4688ZM267.063 12.2344H250.188V69H236.36V12.2344H219.766V0.75H267.063V12.2344ZM298.173 79.6875H261.845V69H298.173V79.6875ZM328.721 55.0312H309.924L306.267 69H291.689L313.017 0.75H325.627L347.096 69H332.377L328.721 55.0312ZM312.924 43.5469H325.674L319.299 19.2188L312.924 43.5469ZM358.659 57.5625H382.846V69H344.878V0.75H358.659V57.5625Z" fill="#A3E2BA"/>
</svg>
