<svg width="474" height="282" viewBox="0 0 474 282" fill="none" xmlns="http://www.w3.org/2000/svg">
<path d="M106.889 274.376V254.728H127.497V250.056H106.889V232.456H129.737V227.784H79.3686V232.456H102.025V250.056H82.1206V254.728H102.025V274.376H76.1046V279.048H133.065V274.376H106.889ZM211.017 234.632H254.217V243.848H259.145V230.216H234.825V223.432H229.897V230.216H206.217V243.848H211.017V234.632ZM243.721 252.296C241.993 258.696 239.049 263.56 234.825 267.272C229.833 265.416 224.777 263.688 220.041 262.28C221.769 259.208 223.625 255.752 225.417 252.296H243.721ZM260.745 252.296V247.816H227.721C229.321 244.616 230.921 241.48 232.265 238.6L227.401 237.512C225.929 240.648 224.137 244.168 222.345 247.816H204.361V252.296H219.977C217.033 257.928 213.961 263.432 211.529 267.464L216.393 268.744C216.905 267.912 217.417 267.016 217.993 266.056C222.025 267.272 226.313 268.808 230.537 270.472C224.265 274.248 216.073 276.424 205.833 277.704C206.793 278.728 208.265 280.904 208.713 281.992C219.913 280.2 228.873 277.384 235.657 272.52C243.081 275.656 249.801 278.984 254.217 281.992L257.673 278.024C253.193 275.208 246.729 272.072 239.689 269.192C243.977 264.968 247.177 259.464 249.161 252.296H260.745ZM351.497 231.496V235.592H340.617V231.496H351.497ZM366.473 235.592H355.721V231.496H366.473V235.592ZM381.641 238.6V243.336H370.761V238.6H381.641ZM355.721 238.6H366.473V243.336H355.721V238.6ZM340.617 238.6H351.497V243.336H340.617V238.6ZM359.113 252.68L358.153 253.448C360.585 254.728 363.721 256.84 365.321 258.376L368.009 256.136C366.857 255.112 364.937 253.768 362.953 252.68H384.265C383.497 254.408 382.601 256.072 381.769 257.352L385.545 258.312C387.017 256.136 388.617 252.936 390.025 249.928L386.889 249.16L386.185 249.352H340.617V247.112V246.344H386.057V235.592H370.761V231.496H388.681V227.784H364.809V223.496H359.945V227.784H336.265V247.112C336.265 256.648 335.817 269.832 330.697 279.24C331.657 279.688 333.577 281.032 334.281 281.864C338.889 273.672 340.233 262.152 340.553 252.68H359.113ZM372.873 255.24C375.881 257.48 379.145 260.744 380.681 263.048L383.945 261.192C382.345 258.888 378.953 255.624 376.009 253.512L372.873 255.24ZM343.369 263.432C346.761 261.512 349.129 258.376 350.665 255.304L347.273 253.832C345.929 256.584 343.369 259.656 340.105 261.32L343.369 263.432ZM373.449 268.424C370.889 270.344 367.625 272.008 363.849 273.352C360.137 272.008 356.937 270.344 354.441 268.424H373.449ZM377.737 265.224L376.969 265.416H357.897C358.985 264.52 360.009 263.624 360.969 262.728H369.161C372.745 262.728 374.025 261.704 374.345 257.544C373.321 257.352 371.849 256.904 371.017 256.392C370.825 259.272 370.441 259.656 368.649 259.656H359.433C356.873 259.656 356.425 259.464 356.425 258.312V254.28H352.585V258.248C352.585 261 353.289 262.152 355.785 262.536C352.201 265.672 346.441 268.872 339.209 271.24C340.105 271.816 341.321 273.16 341.833 274.056C345.097 272.84 348.105 271.496 350.793 270.024C352.905 271.944 355.529 273.608 358.537 275.016C352.393 276.68 345.609 277.704 339.209 278.28C339.913 279.24 340.745 280.776 341.065 281.8C348.617 280.904 356.617 279.496 363.657 277.128C370.569 279.56 378.761 281.032 387.081 281.8C387.593 280.648 388.617 278.92 389.513 278.024C382.345 277.576 375.305 276.552 369.161 274.952C373.769 272.904 377.737 270.28 380.553 267.08L377.737 265.224Z" fill="#F2D2FC"/>
<path d="M124.123 151.562H54.9356L39.045 205H12.6075L78.5606 0.25H100.639L166.732 205H140.295L124.123 151.562ZM61.6856 129.344H117.514L89.5294 36.25L61.6856 129.344ZM302.391 205H276.516L194.531 47.2188V205H168.656V0.25H194.531L276.797 158.734V0.25H302.391V205ZM419.064 151.562H349.877L333.986 205H307.549L373.502 0.25H395.58L461.674 205H435.236L419.064 151.562ZM356.627 129.344H412.455L384.471 36.25L356.627 129.344Z" fill="#F2D2FC"/>
</svg>
