<svg width="298" height="150" viewBox="0 0 298 150" fill="none" xmlns="http://www.w3.org/2000/svg">
<path d="M47.5756 13.2344H30.7006V70H16.8725V13.2344H0.278748V1.75H47.5756V13.2344ZM94.7169 70H80.9825V40.7969H60.6387V70H46.8575V1.75H60.6387V29.3594H80.9825V1.75H94.7169V70ZM111.577 70H97.7956V1.75H111.577V70ZM143.343 52.0938C143.343 49.3125 142.624 47.2188 141.187 45.8125C139.781 44.375 137.203 42.8906 133.453 41.3594C126.609 38.7656 121.687 35.7344 118.687 32.2656C115.687 28.7656 114.187 24.6406 114.187 19.8906C114.187 14.1406 116.218 9.53125 120.281 6.0625C124.374 2.5625 129.562 0.8125 135.843 0.8125C140.031 0.8125 143.765 1.70312 147.046 3.48438C150.328 5.23437 152.843 7.71875 154.593 10.9375C156.374 14.1563 157.265 17.8125 157.265 21.9062H143.531C143.531 18.7188 142.843 16.2969 141.468 14.6406C140.124 12.9531 138.171 12.1094 135.609 12.1094C133.203 12.1094 131.328 12.8281 129.984 14.2656C128.64 15.6719 127.968 17.5781 127.968 19.9844C127.968 21.8594 128.718 23.5625 130.218 25.0938C131.718 26.5938 134.374 28.1562 138.187 29.7812C144.843 32.1875 149.671 35.1406 152.671 38.6406C155.703 42.1406 157.218 46.5938 157.218 52C157.218 57.9375 155.328 62.5781 151.546 65.9219C147.765 69.2656 142.624 70.9375 136.124 70.9375C131.718 70.9375 127.703 70.0312 124.078 68.2188C120.453 66.4062 117.609 63.8125 115.546 60.4375C113.515 57.0625 112.499 53.0781 112.499 48.4844H126.328C126.328 52.4219 127.093 55.2812 128.624 57.0625C130.156 58.8438 132.656 59.7344 136.124 59.7344C140.937 59.7344 143.343 57.1875 143.343 52.0938ZM185.594 70H171.813V1.75H185.594V70ZM217.361 52.0938C217.361 49.3125 216.642 47.2188 215.204 45.8125C213.798 44.375 211.22 42.8906 207.47 41.3594C200.626 38.7656 195.704 35.7344 192.704 32.2656C189.704 28.7656 188.204 24.6406 188.204 19.8906C188.204 14.1406 190.236 9.53125 194.298 6.0625C198.392 2.5625 203.579 0.8125 209.861 0.8125C214.048 0.8125 217.783 1.70312 221.064 3.48438C224.345 5.23437 226.861 7.71875 228.611 10.9375C230.392 14.1563 231.283 17.8125 231.283 21.9062H217.548C217.548 18.7188 216.861 16.2969 215.486 14.6406C214.142 12.9531 212.189 12.1094 209.626 12.1094C207.22 12.1094 205.345 12.8281 204.001 14.2656C202.658 15.6719 201.986 17.5781 201.986 19.9844C201.986 21.8594 202.736 23.5625 204.236 25.0938C205.736 26.5938 208.392 28.1562 212.204 29.7812C218.861 32.1875 223.689 35.1406 226.689 38.6406C229.72 42.1406 231.236 46.5938 231.236 52C231.236 57.9375 229.345 62.5781 225.564 65.9219C221.783 69.2656 216.642 70.9375 210.142 70.9375C205.736 70.9375 201.72 70.0312 198.095 68.2188C194.47 66.4062 191.626 63.8125 189.564 60.4375C187.533 57.0625 186.517 53.0781 186.517 48.4844H200.345C200.345 52.4219 201.111 55.2812 202.642 57.0625C204.173 58.8438 206.673 59.7344 210.142 59.7344C214.954 59.7344 217.361 57.1875 217.361 52.0938ZM277.799 56.0312H259.003L255.346 70H240.768L262.096 1.75H274.706L296.174 70H281.456L277.799 56.0312ZM262.003 44.5469H274.753L268.378 20.2188L262.003 44.5469ZM14.9356 126V150H1.15437V81.75H24.4044C31.1544 81.75 36.5294 83.8438 40.5294 88.0312C44.5606 92.2188 46.5762 97.6562 46.5762 104.344C46.5762 111.031 44.5919 116.312 40.6231 120.188C36.6544 124.062 31.1544 126 24.1231 126H14.9356ZM14.9356 114.516H24.4044C27.0294 114.516 29.0606 113.656 30.4981 111.938C31.9356 110.219 32.6544 107.719 32.6544 104.438C32.6544 101.031 31.92 98.3281 30.4512 96.3281C28.9825 94.2969 27.0137 93.2656 24.545 93.2344H14.9356V114.516ZM67.8425 125.062H60.9987V150H47.2175V81.75H69.2019C76.1081 81.75 81.4362 83.5469 85.1862 87.1406C88.9675 90.7031 90.8581 95.7812 90.8581 102.375C90.8581 111.438 87.5612 117.781 80.9675 121.406L92.9206 149.344V150H78.1081L67.8425 125.062ZM60.9987 113.578H68.8269C71.5769 113.578 73.6394 112.672 75.0144 110.859C76.3894 109.016 77.0769 106.562 77.0769 103.5C77.0769 96.6562 74.405 93.2344 69.0612 93.2344H60.9987V113.578ZM126.937 120.469H105.468V138.562H130.874V150H91.6869V81.75H130.781V93.2344H105.468V109.359H126.937V120.469ZM152.422 131.25L163.906 81.75H179.281L159.594 150H145.25L125.703 81.75H140.984L152.422 131.25ZM191.454 150H177.672V81.75H191.454V150ZM229.642 120.469H208.173V138.562H233.579V150H194.392V81.75H233.486V93.2344H208.173V109.359H229.642V120.469ZM277.252 124.641L283.721 81.75H297.361L285.221 150H271.393L263.424 109.781L255.549 150H241.674L229.486 81.75H243.221L249.643 124.594L257.658 81.75H269.236L277.252 124.641Z" fill="black"/>
</svg>
