<svg width="220" height="71" viewBox="0 0 220 71" fill="none" xmlns="http://www.w3.org/2000/svg">
<path d="M31.7644 52.0938C31.7644 49.3125 31.0456 47.2188 29.6081 45.8125C28.2019 44.375 25.6237 42.8906 21.8737 41.3594C15.03 38.7656 10.1081 35.7344 7.10812 32.2656C4.10812 28.7656 2.60812 24.6406 2.60812 19.8906C2.60812 14.1406 4.63937 9.53125 8.70187 6.0625C12.7956 2.5625 17.9831 0.8125 24.2644 0.8125C28.4519 0.8125 32.1862 1.70312 35.4675 3.48438C38.7487 5.23437 41.2644 7.71875 43.0144 10.9375C44.7956 14.1563 45.6862 17.8125 45.6862 21.9062H31.9519C31.9519 18.7188 31.2644 16.2969 29.8894 14.6406C28.5456 12.9531 26.5925 12.1094 24.03 12.1094C21.6237 12.1094 19.7487 12.8281 18.405 14.2656C17.0612 15.6719 16.3894 17.5781 16.3894 19.9844C16.3894 21.8594 17.1394 23.5625 18.6394 25.0938C20.1394 26.5938 22.7956 28.1562 26.6081 29.7812C33.2644 32.1875 38.0925 35.1406 41.0925 38.6406C44.1237 42.1406 45.6394 46.5938 45.6394 52C45.6394 57.9375 43.7487 62.5781 39.9675 65.9219C36.1862 69.2656 31.0456 70.9375 24.5456 70.9375C20.1394 70.9375 16.1237 70.0312 12.4987 68.2188C8.87375 66.4062 6.03 63.8125 3.9675 60.4375C1.93625 57.0625 0.920624 53.0781 0.920624 48.4844H14.7487C14.7487 52.4219 15.5144 55.2812 17.0456 57.0625C18.5769 58.8438 21.0769 59.7344 24.5456 59.7344C29.3581 59.7344 31.7644 57.1875 31.7644 52.0938ZM90.3431 13.2344H73.4681V70H59.64V13.2344H43.0463V1.75H90.3431V13.2344ZM116.578 56.0312H97.7812L94.125 70H79.5469L100.875 1.75H113.484L134.953 70H120.234L116.578 56.0312ZM100.781 44.5469H113.531L107.156 20.2188L100.781 44.5469ZM153.407 45.0625H146.563V70H132.782V1.75H154.766C161.672 1.75 167.001 3.54687 170.751 7.14062C174.532 10.7031 176.422 15.7812 176.422 22.375C176.422 31.4375 173.126 37.7812 166.532 41.4062L178.485 69.3438V70H163.672L153.407 45.0625ZM146.563 33.5781H154.391C157.141 33.5781 159.204 32.6719 160.579 30.8594C161.954 29.0156 162.641 26.5625 162.641 23.5C162.641 16.6562 159.969 13.2344 154.626 13.2344H146.563V33.5781ZM219.111 13.2344H202.236V70H188.408V13.2344H171.814V1.75H219.111V13.2344Z" fill="black"/>
</svg>
