<svg width="255" height="81" viewBox="0 0 255 81" fill="none" xmlns="http://www.w3.org/2000/svg">
<g clip-path="url(#clip0)">
<path d="M49.7644 56.0938C49.7644 53.3125 49.0456 51.2188 47.6081 49.8125C46.2019 48.375 43.6237 46.8906 39.8737 45.3594C33.03 42.7656 28.1081 39.7344 25.1081 36.2656C22.1081 32.7656 20.6081 28.6406 20.6081 23.8906C20.6081 18.1406 22.6394 13.5312 26.7019 10.0625C30.7956 6.5625 35.9831 4.8125 42.2644 4.8125C46.4519 4.8125 50.1862 5.70312 53.4675 7.48438C56.7487 9.23437 59.2644 11.7187 61.0144 14.9375C62.7956 18.1563 63.6862 21.8125 63.6862 25.9062H49.9519C49.9519 22.7188 49.2644 20.2969 47.8894 18.6406C46.5456 16.9531 44.5925 16.1094 42.03 16.1094C39.6237 16.1094 37.7487 16.8281 36.405 18.2656C35.0612 19.6719 34.3894 21.5781 34.3894 23.9844C34.3894 25.8594 35.1394 27.5625 36.6394 29.0938C38.1394 30.5938 40.7956 32.1562 44.6081 33.7812C51.2644 36.1875 56.0925 39.1406 59.0925 42.6406C62.1237 46.1406 63.6394 50.5938 63.6394 56C63.6394 61.9375 61.7487 66.5781 57.9675 69.9219C54.1862 73.2656 49.0456 74.9375 42.5456 74.9375C38.1394 74.9375 34.1237 74.0312 30.4987 72.2188C26.8737 70.4062 24.03 67.8125 21.9675 64.4375C19.9362 61.0625 18.9206 57.0781 18.9206 52.4844H32.7487C32.7487 56.4219 33.5144 59.2812 35.0456 61.0625C36.5769 62.8438 39.0769 63.7344 42.5456 63.7344C47.3581 63.7344 49.7644 61.1875 49.7644 56.0938ZM108.343 17.2344H91.4681V74H77.64V17.2344H61.0463V5.75H108.343V17.2344ZM134.578 60.0312H115.781L112.125 74H97.5469L118.875 5.75H131.484L152.953 74H138.234L134.578 60.0312ZM118.781 48.5469H131.531L125.156 24.2188L118.781 48.5469ZM171.407 49.0625H164.563V74H150.782V5.75H172.766C179.672 5.75 185.001 7.54687 188.751 11.1406C192.532 14.7031 194.422 19.7812 194.422 26.375C194.422 35.4375 191.126 41.7812 184.532 45.4062L196.485 73.3438V74H181.672L171.407 49.0625ZM164.563 37.5781H172.391C175.141 37.5781 177.204 36.6719 178.579 34.8594C179.954 33.0156 180.641 30.5625 180.641 27.5C180.641 20.6562 177.969 17.2344 172.626 17.2344H164.563V37.5781ZM237.111 17.2344H220.236V74H206.408V17.2344H189.814V5.75H237.111V17.2344Z" fill="#FCF1FF"/>
</g>
<defs>
<clipPath id="clip0">
<rect width="255" height="81" fill="white"/>
</clipPath>
</defs>
</svg>
